<?xml version="1.0" encoding="UTF-8" standalone="no"?>
<!-- Created with Inkscape (http://www.inkscape.org/) -->

<svg
   xmlns:dc="http://purl.org/dc/elements/1.1/"
   xmlns:cc="http://creativecommons.org/ns#"
   xmlns:rdf="http://www.w3.org/1999/02/22-rdf-syntax-ns#"
   xmlns:svg="http://www.w3.org/2000/svg"
   xmlns="http://www.w3.org/2000/svg"
   xmlns:sodipodi="http://sodipodi.sourceforge.net/DTD/sodipodi-0.dtd"
   xmlns:inkscape="http://www.inkscape.org/namespaces/inkscape"
   width="31.275742mm"
   height="31.293966mm"
   viewBox="0 0 31.275742 31.293966"
   version="1.1"
   id="svg2475"
   inkscape:version="0.92.3 (2405546, 2018-03-11)"
   sodipodi:docname="CL.svg">
  <defs
     id="defs2469" />
  <sodipodi:namedview
     id="base"
     pagecolor="#ffffff"
     bordercolor="#666666"
     borderopacity="1.0"
     inkscape:pageopacity="0.0"
     inkscape:pageshadow="2"
     inkscape:zoom="5.6568542"
     inkscape:cx="49.500414"
     inkscape:cy="57.802509"
     inkscape:document-units="mm"
     inkscape:current-layer="layer1"
     showgrid="false"
     fit-margin-top="0"
     fit-margin-left="0"
     fit-margin-right="0"
     fit-margin-bottom="0"
     inkscape:window-width="1853"
     inkscape:window-height="1025"
     inkscape:window-x="67"
     inkscape:window-y="27"
     inkscape:window-maximized="1"
     inkscape:snap-global="false">
    <inkscape:grid
       type="xygrid"
       id="grid888" />
  </sodipodi:namedview>
  <metadata
     id="metadata2472">
    <rdf:RDF>
      <cc:Work
         rdf:about="">
        <dc:format>image/svg+xml</dc:format>
        <dc:type
           rdf:resource="http://purl.org/dc/dcmitype/StillImage" />
        <dc:title></dc:title>
      </cc:Work>
    </rdf:RDF>
  </metadata>
  <g
     inkscape:label="Calque 1"
     inkscape:groupmode="layer"
     id="layer1"
     transform="translate(-65.060047,-199.89914)">
    <g
       id="g871">
      <g
         id="g861">
        <path
           id="path855"
           d="m 80.699547,215.53333 -13.523205,7.80728 a 15.635268,15.635268 0 0 0 13.524237,7.82898 15.635268,15.635268 0 0 0 13.528374,-7.82485 z"
           style="fill:#a7599c;fill-opacity:1;stroke:none;stroke-width:0.1;stroke-miterlimit:4;stroke-dasharray:none;stroke-opacity:1"
           inkscape:connector-curvature="0" />
        <path
           id="path857"
           d="m 80.700063,199.89914 a 15.635268,15.635268 0 0 0 -15.634705,15.63522 15.635268,15.635268 0 0 0 2.110984,7.80625 l 13.523205,-7.80728 z"
           style="fill:#1edb86;fill-opacity:1;stroke:none;stroke-width:0.1;stroke-miterlimit:4;stroke-dasharray:none;stroke-opacity:1"
           inkscape:connector-curvature="0" />
        <path
           id="path859"
           d="m 80.700063,199.89914 -5.29e-4,15.63419 13.529405,7.81141 a 15.635268,15.635268 0 0 0 2.106848,-7.81038 15.635268,15.635268 0 0 0 -15.635221,-15.63522 15.635268,15.635268 0 0 0 -5.29e-4,0 z"
           style="fill:#1283f4;fill-opacity:1;stroke:none;stroke-width:0.1;stroke-miterlimit:4;stroke-dasharray:none;stroke-opacity:1"
           inkscape:connector-curvature="0" />
      </g>
      <g
         id="g869" />
    </g>
    <g
       id="g910">
      <g
         id="g845">
        <path
           inkscape:connector-curvature="0"
           style="fill:#a7599c;fill-opacity:1;stroke:none;stroke-width:0.1;stroke-miterlimit:4;stroke-dasharray:none;stroke-opacity:1"
           d="m 80.699547,215.53333 -13.523205,7.80728 a 15.635268,15.635268 0 0 0 13.524237,7.82898 15.635268,15.635268 0 0 0 13.528374,-7.82485 z"
           id="path2413" />
        <path
           inkscape:connector-curvature="0"
           style="fill:#1edb86;fill-opacity:1;stroke:none;stroke-width:0.1;stroke-miterlimit:4;stroke-dasharray:none;stroke-opacity:1"
           d="m 80.700063,199.89914 a 15.635268,15.635268 0 0 0 -15.634705,15.63522 15.635268,15.635268 0 0 0 2.110984,7.80625 l 13.523205,-7.80728 z"
           id="path2411" />
        <path
           inkscape:connector-curvature="0"
           style="fill:#1283f4;fill-opacity:1;stroke:none;stroke-width:0.1;stroke-miterlimit:4;stroke-dasharray:none;stroke-opacity:1"
           d="m 80.700063,199.89914 -5.29e-4,15.63419 13.529405,7.81141 a 15.635268,15.635268 0 0 0 2.106848,-7.81038 15.635268,15.635268 0 0 0 -15.635221,-15.63522 15.635268,15.635268 0 0 0 -5.29e-4,0 z"
           id="path860-7" />
      </g>
      <g
         id="g853">
        <path
           id="path847"
           d="m 80.699547,215.53333 -13.523205,7.80728 a 15.635268,15.635268 0 0 0 13.524237,7.82898 15.635268,15.635268 0 0 0 13.528374,-7.82485 z"
           style="fill:#a7599c;fill-opacity:1;stroke:none;stroke-width:0.1;stroke-miterlimit:4;stroke-dasharray:none;stroke-opacity:1"
           inkscape:connector-curvature="0" />
        <path
           id="path849"
           d="m 80.700063,199.89914 a 15.635268,15.635268 0 0 0 -15.634705,15.63522 15.635268,15.635268 0 0 0 2.110984,7.80625 l 13.523205,-7.80728 z"
           style="fill:#1edb86;fill-opacity:1;stroke:none;stroke-width:0.1;stroke-miterlimit:4;stroke-dasharray:none;stroke-opacity:1"
           inkscape:connector-curvature="0" />
        <path
           id="path851"
           d="m 80.700063,199.89914 -5.29e-4,15.63419 13.529405,7.81141 a 15.635268,15.635268 0 0 0 2.106848,-7.81038 15.635268,15.635268 0 0 0 -15.635221,-15.63522 15.635268,15.635268 0 0 0 -5.29e-4,0 z"
           style="fill:#1283f4;fill-opacity:1;stroke:none;stroke-width:0.1;stroke-miterlimit:4;stroke-dasharray:none;stroke-opacity:1"
           inkscape:connector-curvature="0" />
      </g>
    </g>
    <text
       xml:space="preserve"
       style="font-style:normal;font-weight:normal;font-size:10.58333302px;line-height:1.25;font-family:sans-serif;letter-spacing:0px;word-spacing:0px;fill:#000000;fill-opacity:1;stroke:none;stroke-width:0.26458332"
       x="90.049751"
       y="229.99039"
       id="text854"><tspan
         sodipodi:role="line"
         id="tspan852"
         x="90.049751"
         y="239.35416"
         style="stroke-width:0.26458332" /></text>
    <path
       style="fill:#000000;fill-opacity:0.44082845;stroke:none;stroke-width:0.99999994px;stroke-linecap:butt;stroke-linejoin:miter;stroke-opacity:1"
       d="M 71.462891 27.558594 L 63.101562 38.037109 L 50.912109 28.474609 L 34.294922 31.478516 L 1.4199219 71.572266 A 59.093926 59.093926 0 0 0 7.9980469 88.597656 A 59.093926 59.093926 0 0 0 59.113281 118.1875 A 59.093926 59.093926 0 0 0 70.335938 117.07617 L 97.3125 68.748047 L 77.074219 65.951172 L 71.462891 27.558594 z "
       transform="matrix(0.26458333,0,0,0.26458333,65.060047,199.89914)"
       id="path840" />
    <path
       style="fill:#ffffff;stroke:#ffffff;stroke-width:1.61026537;stroke-linecap:butt;stroke-linejoin:miter;stroke-miterlimit:4;stroke-dasharray:none;stroke-opacity:1"
       d="m 73.405198,224.09933 h 9.526089"
       id="path871"
       inkscape:connector-curvature="0"
       sodipodi:nodetypes="cc" />
    <g
       aria-label="CL"
       style="font-style:normal;font-variant:normal;font-weight:bold;font-stretch:normal;font-size:15.39257431px;line-height:1.25;font-family:Umpush;-inkscape-font-specification:'Umpush Bold';letter-spacing:0px;word-spacing:0px;fill:#ffffff;fill-opacity:1;stroke:none;stroke-width:0.28861076"
       id="text833">
      <path
         d="m 77.639559,216.53298 q 1.022163,0 1.848913,-0.60127 0.82675,-0.60127 0.931972,-1.45057 h 1.803818 q -0.210446,0.81172 -0.571209,1.4656 -0.360764,0.65389 -0.909425,1.17248 -0.548661,0.51109 -1.330315,0.78917 -0.781654,0.27809 -1.751206,0.27809 -2.442669,0 -3.810564,-1.51821 -1.367895,-1.52573 -1.367895,-4.17884 0,-1.63096 0.646368,-2.88611 0.646368,-1.26267 1.826365,-1.95414 1.187513,-0.69898 2.728274,-0.69898 1.676047,0 2.810948,0.88688 1.134902,0.87936 1.540761,2.35999 h -1.803817 q -0.240509,-0.74407 -0.916941,-1.16496 -0.676431,-0.42841 -1.661015,-0.42841 -1.570824,0 -2.472733,1.06726 -0.894393,1.05974 -0.894393,2.81095 0,1.74369 0.947004,2.90114 0.947005,1.14993 2.40509,1.14993 z"
         style="font-style:normal;font-variant:normal;font-weight:bold;font-stretch:normal;font-family:Umpush;-inkscape-font-specification:'Umpush Bold';fill:#ffffff;stroke-width:0.28861076"
         id="path835" />
      <path
         d="m 83.967951,218.08878 v -10.89807 h 1.803818 v 9.24457 h 5.035656 v 1.6535 z"
         style="font-style:normal;font-variant:normal;font-weight:bold;font-stretch:normal;font-family:Umpush;-inkscape-font-specification:'Umpush Bold';fill:#ffffff;stroke-width:0.28861076"
         id="path837" />
    </g>
  </g>
</svg>
