<?xml version="1.0" encoding="UTF-8" standalone="no"?>
<svg
   xmlns:dc="http://purl.org/dc/elements/1.1/"
   xmlns:cc="http://creativecommons.org/ns#"
   xmlns:rdf="http://www.w3.org/1999/02/22-rdf-syntax-ns#"
   xmlns:svg="http://www.w3.org/2000/svg"
   xmlns="http://www.w3.org/2000/svg"
   xmlns:sodipodi="http://sodipodi.sourceforge.net/DTD/sodipodi-0.dtd"
   xmlns:inkscape="http://www.inkscape.org/namespaces/inkscape"
   viewBox="0 0 288.28591 288.66928"
   version="1.1"
   id="svg819"
   sodipodi:docname="Discord-Logo-Black.svg"
   inkscape:version="0.92.3 (2405546, 2018-03-11)"
   width="288.28592"
   height="288.66928">
  <metadata
     id="metadata825">
    <rdf:RDF>
      <cc:Work
         rdf:about="">
        <dc:format>image/svg+xml</dc:format>
        <dc:type
           rdf:resource="http://purl.org/dc/dcmitype/StillImage" />
        <dc:title></dc:title>
      </cc:Work>
    </rdf:RDF>
  </metadata>
  <defs
     id="defs823" />
  <sodipodi:namedview
     pagecolor="#ffffff"
     bordercolor="#666666"
     borderopacity="1"
     objecttolerance="10"
     gridtolerance="10"
     guidetolerance="10"
     inkscape:pageopacity="0"
     inkscape:pageshadow="2"
     inkscape:window-width="1920"
     inkscape:window-height="1028"
     id="namedview821"
     showgrid="false"
     inkscape:zoom="3.5708333"
     inkscape:cx="144.26256"
     inkscape:cy="167.16476"
     inkscape:window-x="0"
     inkscape:window-y="0"
     inkscape:window-maximized="1"
     inkscape:current-layer="svg819"
     fit-margin-top="0"
     fit-margin-left="0"
     fit-margin-right="0"
     fit-margin-bottom="0" />
  <g
     id="g868"
     transform="matrix(1.7330319,0,0,1.7330319,-67.94619,-45.135676)">
    <circle
       r="83.173866"
       cy="109.21821"
       cx="122.38041"
       id="path863"
       style="fill:#7289da;fill-opacity:1;stroke:none;stroke-width:1.61901879;stroke-linecap:square;stroke-linejoin:round;stroke-miterlimit:4;stroke-dasharray:none;stroke-opacity:1" />
    <path
       id="path837"
       d="m 107.19922,66.599609 -28.099611,10.5 -39.818359,36.986331 a 84.014,84.014 0 0 0 83.81836,78.52734 84.014,84.014 0 0 0 14.96094,-1.375 L 181.5,135.40039 167.09961,77.099609 139,66.599609 124.62109,78.972656 97.175781,77.572266 108.19922,67.800781 Z"
       style="fill:#000000;fill-opacity:0.35200004;stroke:none;stroke-width:1.13385832;stroke-linecap:square;stroke-linejoin:round;stroke-miterlimit:4;stroke-dasharray:none;stroke-opacity:1"
       inkscape:connector-curvature="0" />
    <path
       id="path831"
       d="m 107.19922,66.599609 c 0,0 -0.85586,-0.01758 -2.36524,0.123047 -1.50937,0.140625 -3.6707,0.440625 -6.283199,1.078125 -2.6125,0.6375 -5.675,1.610938 -8.984375,3.101563 -1.654687,0.745312 -3.372265,1.621094 -5.125,2.646484 -1.752734,1.025391 -3.541797,2.200781 -5.341797,3.550781 0,0 -0.9,1.632032 -2.25,4.582032 -1.35,2.95 -3.149218,7.21914 -4.949218,12.49414 -0.9,2.6375 -1.800782,5.525391 -2.644532,8.626949 -0.84375,3.10157 -1.63164,6.4168 -2.30664,9.9043 -0.675,3.4875 -1.23711,7.14805 -1.63086,10.94336 -0.39375,3.79531 -0.61914,7.725 -0.61914,11.75 0,0 0.52539,0.90508 1.658203,2.27539 0.566406,0.68516 1.285351,1.4877 2.166016,2.34961 0.880664,0.86191 1.923046,1.78477 3.138671,2.71289 1.215625,0.92813 2.604493,1.86035 4.175782,2.74414 1.571289,0.88379 3.325781,1.71836 5.273437,2.44727 1.947656,0.7289 4.088867,1.35293 6.433594,1.8164 2.344726,0.46348 4.891797,0.76602 7.654297,0.85352 0,0 3.701172,-4.49883 6.701171,-8.29883 -1.5875,-0.475 -3.051757,-1.01719 -4.398437,-1.59961 -1.34668,-0.58242 -2.57539,-1.20547 -3.693359,-1.84765 -2.235938,-1.28438 -4.028125,-2.64141 -5.421875,-3.87891 -1.39375,-1.2375 -2.390625,-2.35664 -3.039063,-3.16602 C 84.699219,130.99922 84.400391,130.5 84.400391,130.5 c 0,0 0.998828,0.69922 2.798828,1.69922 0.1,0.1 0.20039,0.20078 0.40039,0.30078 0.3,0.2 0.600391,0.3 0.900391,0.5 2.5,1.4 5.000781,2.50039 7.300781,3.40039 2.05,0.8 4.299999,1.60039 6.749999,2.33789 2.45,0.7375 5.09922,1.41094 7.94922,1.96094 1.875,0.35 3.83164,0.64375 5.86133,0.85937 2.02969,0.21563 4.13203,0.35313 6.30078,0.39063 2.16875,0.0375 4.40312,-0.0246 6.69531,-0.20899 2.29219,-0.18437 4.64297,-0.48945 7.04297,-0.93945 2.35,-0.4 4.72422,-0.95156 7.13672,-1.66406 2.4125,-0.7125 4.86328,-1.58672 7.36328,-2.63672 1.75,-0.65 3.60039,-1.45078 5.52539,-2.42578 1.925,-0.975 3.92461,-2.12461 5.97461,-3.47461 0,0 -0.31289,0.51328 -0.98633,1.33984 -0.67344,0.82657 -1.70859,1.96641 -3.15234,3.22266 -1.44375,1.25625 -3.29649,2.62891 -5.60742,3.91797 -1.15547,0.64453 -2.42403,1.26738 -3.81446,1.8457 -1.39043,0.57832 -2.90156,1.11172 -4.53906,1.57422 3,3.8 6.59961,8.09961 6.59961,8.09961 2.7625,-0.0875 5.3127,-0.39004 7.66016,-0.85352 2.34746,-0.46347 4.49101,-1.0875 6.44336,-1.8164 1.95234,-0.72891 3.71191,-1.56348 5.28906,-2.44727 1.57715,-0.88379 2.97344,-1.81601 4.19531,-2.74414 1.22188,-0.92812 2.26973,-1.85098 3.15625,-2.71289 0.88652,-0.86191 1.61055,-1.66445 2.18164,-2.34961 1.14219,-1.37031 1.67383,-2.27539 1.67383,-2.27539 0,-4.025 -0.22539,-7.95469 -0.61914,-11.75 -0.39375,-3.79531 -0.95586,-7.45586 -1.63086,-10.94336 -0.675,-3.4875 -1.46289,-6.80273 -2.30664,-9.9043 -0.84375,-3.101558 -1.74258,-5.989449 -2.64258,-8.626949 -1.8,-5.275 -3.60117,-9.54414 -4.95117,-12.49414 -1.35,-2.95 -2.25,-4.582032 -2.25,-4.582032 -1.8,-1.35 -3.58906,-2.52539 -5.3418,-3.550781 -1.75273,-1.02539 -3.46836,-1.901172 -5.12304,-2.646484 -3.30938,-1.490625 -6.37188,-2.464063 -8.98438,-3.101563 -2.6125,-0.6375 -4.77578,-0.9375 -6.28516,-1.078125 C 139.85586,66.582031 139,66.599609 139,66.599609 l -1.40039,1.59961 c 4.25,1.3 7.93125,2.745312 11.0625,4.179687 3.13125,1.434375 5.71367,2.858594 7.76367,4.121094 2.05,1.2625 3.56797,2.362109 4.57422,3.146484 1.00625,0.784375 1.5,1.253907 1.5,1.253907 -2.6,-1.425 -5.18672,-2.66875 -7.75391,-3.75 -2.56718,-1.08125 -5.11406,-2.000391 -7.63281,-2.775391 -2.51875,-0.775 -5.01015,-1.405859 -7.46484,-1.912109 -2.45469,-0.50625 -4.87305,-0.88711 -7.24805,-1.16211 -3.6,-0.4 -7.12617,-0.55 -10.51367,-0.5 -3.3875,0.05 -6.6375,0.299219 -9.6875,0.699219 -0.6,0 -1.09922,0.09922 -1.69922,0.199219 -1.75,0.15 -4.75039,0.55 -8.65039,1.5 -1.950001,0.475 -4.124219,1.0875 -6.480469,1.875 -2.35625,0.7875 -4.89336,1.750781 -7.56836,2.925781 -3.7,1.7 -5.90039,2.900391 -5.90039,2.900391 0,0 0.51875,-0.494532 1.578125,-1.316407 1.059375,-0.821875 2.659765,-1.970703 4.822265,-3.283203 2.1625,-1.3125 4.885938,-2.78789 8.195313,-4.259765 3.309375,-1.471875 7.203126,-2.940235 11.703126,-4.240235 z m -2.79883,37.300781 c 1.425,0 2.78047,0.31289 4.01172,0.87695 1.23125,0.56407 2.33867,1.37852 3.26367,2.38477 0.925,1.00625 1.66758,2.20273 2.17383,3.5293 0.50625,1.32656 0.775,2.78359 0.75,4.30859 0,1.525 -0.28008,2.98203 -0.79102,4.30859 -0.51093,1.32657 -1.25312,2.52305 -2.17187,3.5293 -0.91875,1.00625 -2.01484,1.8207 -3.23828,2.38477 -1.22344,0.56406 -2.57305,0.87695 -3.99805,0.87695 -1.4,0 -2.73828,-0.31289 -3.95703,-0.87695 -1.218751,-0.56407 -2.319141,-1.37852 -3.244141,-2.38477 -0.925,-1.00625 -1.67461,-2.20273 -2.19336,-3.5293 -0.51875,-1.32656 -0.80664,-2.78359 -0.80664,-4.30859 0,-1.525 0.282031,-2.98203 0.792969,-4.30859 0.510937,-1.32657 1.251171,-2.52305 2.169921,-3.5293 0.91875,-1.00625 2.016797,-1.8207 3.240231,-2.38477 1.22344,-0.56406 2.57305,-0.87695 3.99805,-0.87695 z m 36.5,0 c 1.425,0 2.77461,0.31289 3.99805,0.87695 1.22343,0.56407 2.31953,1.37852 3.23828,2.38477 0.91875,1.00625 1.66094,2.20273 2.17187,3.5293 0.51094,1.32656 0.79102,2.78359 0.79102,4.30859 0,1.525 -0.28008,2.98203 -0.79102,4.30859 -0.51093,1.32657 -1.25312,2.52305 -2.17187,3.5293 -0.91875,1.00625 -2.01485,1.8207 -3.23828,2.38477 -1.22344,0.56406 -2.57305,0.87695 -3.99805,0.87695 -1.4,0 -2.73828,-0.31289 -3.95703,-0.87695 -1.21875,-0.56407 -2.31914,-1.37852 -3.24414,-2.38477 -0.925,-1.00625 -1.67461,-2.20273 -2.19336,-3.5293 -0.51875,-1.32656 -0.80664,-2.78359 -0.80664,-4.30859 0,-1.525 0.28203,-2.98203 0.79297,-4.30859 0.51094,-1.32657 1.25117,-2.52305 2.16992,-3.5293 0.91875,-1.00625 2.0168,-1.8207 3.24023,-2.38477 1.22344,-0.56406 2.57305,-0.87695 3.99805,-0.87695 z"
       style="fill:#ffffff;fill-opacity:1;stroke:none;stroke-width:1.13385832;stroke-linecap:square;stroke-linejoin:round;stroke-miterlimit:4;stroke-dasharray:none;stroke-opacity:1"
       inkscape:connector-curvature="0" />
  </g>
</svg>
