<?xml version="1.0" encoding="UTF-8" standalone="no"?>
<!-- Created with Inkscape (http://www.inkscape.org/) -->

<svg
   xmlns:dc="http://purl.org/dc/elements/1.1/"
   xmlns:cc="http://creativecommons.org/ns#"
   xmlns:rdf="http://www.w3.org/1999/02/22-rdf-syntax-ns#"
   xmlns:svg="http://www.w3.org/2000/svg"
   xmlns="http://www.w3.org/2000/svg"
   xmlns:sodipodi="http://sodipodi.sourceforge.net/DTD/sodipodi-0.dtd"
   xmlns:inkscape="http://www.inkscape.org/namespaces/inkscape"
   width="31.275742mm"
   height="31.293966mm"
   viewBox="0 0 31.275742 31.293966"
   version="1.1"
   id="svg2475"
   inkscape:version="0.92.3 (2405546, 2018-03-11)"
   sodipodi:docname="IJ.svg">
  <defs
     id="defs2469" />
  <sodipodi:namedview
     id="base"
     pagecolor="#ffffff"
     bordercolor="#666666"
     borderopacity="1.0"
     inkscape:pageopacity="0.0"
     inkscape:pageshadow="2"
     inkscape:zoom="2.8284271"
     inkscape:cx="44.550666"
     inkscape:cy="8.3050337"
     inkscape:document-units="mm"
     inkscape:current-layer="layer1"
     showgrid="false"
     fit-margin-top="0"
     fit-margin-left="0"
     fit-margin-right="0"
     fit-margin-bottom="0"
     inkscape:window-width="1857"
     inkscape:window-height="1028"
     inkscape:window-x="63"
     inkscape:window-y="28"
     inkscape:window-maximized="1">
    <inkscape:grid
       type="xygrid"
       id="grid888" />
  </sodipodi:namedview>
  <metadata
     id="metadata2472">
    <rdf:RDF>
      <cc:Work
         rdf:about="">
        <dc:format>image/svg+xml</dc:format>
        <dc:type
           rdf:resource="http://purl.org/dc/dcmitype/StillImage" />
        <dc:title />
      </cc:Work>
    </rdf:RDF>
  </metadata>
  <g
     inkscape:label="Calque 1"
     inkscape:groupmode="layer"
     id="layer1"
     transform="translate(-65.060047,-199.89914)">
    <g
       id="g910">
      <path
         id="path2413"
         d="m 80.699547,215.53333 -13.523205,7.80728 a 15.635268,15.635268 0 0 0 13.524237,7.82898 15.635268,15.635268 0 0 0 13.528374,-7.82485 z"
         style="fill:#a7599c;fill-opacity:1;stroke:none;stroke-width:0.1;stroke-miterlimit:4;stroke-dasharray:none;stroke-opacity:1"
         inkscape:connector-curvature="0" />
      <path
         id="path2411"
         d="m 80.700063,199.89914 a 15.635268,15.635268 0 0 0 -15.634705,15.63522 15.635268,15.635268 0 0 0 2.110984,7.80625 l 13.523205,-7.80728 z"
         style="fill:#fe4274;fill-opacity:1;stroke:none;stroke-width:0.1;stroke-miterlimit:4;stroke-dasharray:none;stroke-opacity:1"
         inkscape:connector-curvature="0" />
      <path
         id="path860-7"
         d="m 80.700063,199.89914 -5.29e-4,15.63419 13.529405,7.81141 a 15.635268,15.635268 0 0 0 2.106848,-7.81038 15.635268,15.635268 0 0 0 -15.635221,-15.63522 15.635268,15.635268 0 0 0 -5.29e-4,0 z"
         style="fill:#1283f4;fill-opacity:1;stroke:none;stroke-width:0.1;stroke-miterlimit:4;stroke-dasharray:none;stroke-opacity:1"
         inkscape:connector-curvature="0" />
    </g>
    <text
       xml:space="preserve"
       style="font-style:normal;font-weight:normal;font-size:10.58333302px;line-height:1.25;font-family:sans-serif;letter-spacing:0px;word-spacing:0px;fill:#000000;fill-opacity:1;stroke:none;stroke-width:0.26458332"
       x="90.049751"
       y="229.99039"
       id="text854"><tspan
         sodipodi:role="line"
         id="tspan852"
         x="90.049751"
         y="239.35416"
         style="stroke-width:0.26458332" /></text>
    <path
       style="fill:#000000;fill-opacity:0.47606381;stroke:none;stroke-width:0.99999994px;stroke-linecap:butt;stroke-linejoin:miter;stroke-opacity:1"
       d="M 30.099609 28.550781 L 0.41601562 52.634766 A 59.092914 59.092914 0 0 0 0.046875 59.007812 A 59.092914 59.092914 0 0 0 45.257812 116.375 L 67.5 94.527344 L 53.625 91.777344 L 77.472656 66.701172 L 76 29.152344 L 72.337891 28.664062 L 40.75 59.277344 L 41.5 40.152344 L 46.646484 34.916016 L 30.099609 28.550781 z "
       transform="matrix(0.26458333,0,0,0.26458333,65.060047,199.89914)"
       id="path905" />
    <g
       id="g903"
       transform="matrix(1.2729371,0,0,1.2729371,-18.009326,-57.583841)">
      <path
         sodipodi:nodetypes="cc"
         inkscape:connector-curvature="0"
         id="path871"
         d="m 71.813858,221.28601 h 7.48355"
         style="fill:#ffffff;stroke:#ffffff;stroke-width:1.26499999;stroke-linecap:butt;stroke-linejoin:miter;stroke-miterlimit:4;stroke-dasharray:none;stroke-opacity:1" />
      <path
         sodipodi:nodetypes="ccccccccccccc"
         inkscape:connector-curvature="0"
         id="path886"
         d="m 71.514127,208.20922 h 3.43959 v 1.32291 h -0.79375 v 5.82084 h 0.79375 v 1.32291 h -3.43959 v -1.32291 h 0.79375 v -5.82084 h -0.79375 z"
         style="fill:#ffffff;stroke:none;stroke-width:0.1;stroke-linecap:butt;stroke-linejoin:miter;stroke-miterlimit:4;stroke-dasharray:none;stroke-opacity:1" />
      <path
         sodipodi:nodetypes="ccccccc"
         inkscape:connector-curvature="0"
         id="path892"
         d="m 80.293777,208.2326 h 1.649762 v 6.32409 c -0.167023,2.77538 -3.202053,3.09411 -5.377694,0.95401 l 0.978332,-0.95401 c 1.589197,1.39985 2.81687,1.09334 2.7496,-0.82488 z"
         style="fill:#ffffff;fill-opacity:1;stroke:none;stroke-width:0.10392201;stroke-linecap:butt;stroke-linejoin:miter;stroke-miterlimit:4;stroke-dasharray:none;stroke-opacity:1" />
    </g>
  </g>
</svg>
