<?xml version="1.0" encoding="UTF-8" standalone="no"?>
<!-- Generator: Adobe Illustrator 19.0.0, SVG Export Plug-In . SVG Version: 6.00 Build 0)  -->

<svg
   xmlns:dc="http://purl.org/dc/elements/1.1/"
   xmlns:cc="http://creativecommons.org/ns#"
   xmlns:rdf="http://www.w3.org/1999/02/22-rdf-syntax-ns#"
   xmlns:svg="http://www.w3.org/2000/svg"
   xmlns="http://www.w3.org/2000/svg"
   xmlns:sodipodi="http://sodipodi.sourceforge.net/DTD/sodipodi-0.dtd"
   xmlns:inkscape="http://www.inkscape.org/namespaces/inkscape"
   version="1.1"
   id="Layer_1"
   x="0px"
   y="0px"
   viewBox="0 0 963.25615 944.59495"
   xml:space="preserve"
   sodipodi:docname="microscope.svg"
   width="963.2561"
   height="944.59491"
   inkscape:version="0.92.3 (2405546, 2018-03-11)"><metadata
   id="metadata43"><rdf:RDF><cc:Work
       rdf:about=""><dc:format>image/svg+xml</dc:format><dc:type
         rdf:resource="http://purl.org/dc/dcmitype/StillImage" /><dc:title /></cc:Work></rdf:RDF></metadata><defs
   id="defs41" /><sodipodi:namedview
   pagecolor="#ffffff"
   bordercolor="#666666"
   borderopacity="1"
   objecttolerance="10"
   gridtolerance="10"
   guidetolerance="10"
   inkscape:pageopacity="0"
   inkscape:pageshadow="2"
   inkscape:window-width="1857"
   inkscape:window-height="1028"
   id="namedview39"
   showgrid="false"
   fit-margin-top="0"
   fit-margin-left="0"
   fit-margin-right="0"
   fit-margin-bottom="0"
   inkscape:zoom="0.65186282"
   inkscape:cx="275.46061"
   inkscape:cy="509.86438"
   inkscape:window-x="63"
   inkscape:window-y="28"
   inkscape:window-maximized="1"
   inkscape:current-layer="Layer_1" />
<ellipse
   style="fill:#e18946;fill-opacity:1;stroke:none"
   id="path4553"
   cx="481.62805"
   cy="471.8653"
   rx="481.62805"
   ry="471.8653" /><path
   inkscape:connector-curvature="0"
   style="fill:#a55211;fill-opacity:1;stroke:none"
   d="M 426.55014,196.55977 25.925138,620.16328 c 63.8702,190.37991 243.513212,320.46771 448.019532,324.43164 l 222.57226,-272.30469 -54.10156,-34.23828 46.64453,-90.0332 -137.64062,3.5332 80.82717,-117.02563 c 0,0 -95.40773,-199.16734 -205.69631,-237.96655 z"
   id="path4553-3"
   sodipodi:nodetypes="ccccccccc" /><g
   id="g6"
   transform="matrix(-1,0,0,1,761.49302,162.71216)"
   style="fill:#ffffff;fill-opacity:1">
	<g
   id="g4"
   style="fill:#ffffff;fill-opacity:1">
		<path
   d="M 422.244,430.198 C 438.818,403.346 448,373.081 448,341.335 448,267.383 401.336,203.232 331.626,179.852 322.247,164.7 306.85,153.76 288.686,150.482 l 9.98,-19.96 c 2.635,-5.271 0.5,-11.677 -4.771,-14.312 l 9.542,-19.083 c 5.271,2.615 11.656,0.5 14.313,-4.771 l 22.458,-44.917 c 2.635,-5.271 0.5,-11.677 -4.771,-14.313 l -64,-32 c -5.281,-2.625 -11.667,-0.51 -14.313,4.771 l -22.458,44.917 c -2.635,5.271 -0.5,11.677 4.771,14.313 l -9.542,19.083 c -5.26,-2.615 -11.677,-0.5 -14.313,4.771 l -86.458,172.917 c -2.635,5.271 -0.5,11.677 4.771,14.313 l 64,32 c 1.531,0.76 3.156,1.125 4.76,1.125 3.917,0 7.677,-2.156 9.552,-5.896 l 21.694,-43.382 c 11.431,10.632 26.625,17.277 43.431,17.277 14.004,0 26.863,-4.65 37.411,-12.307 29.22,14.289 47.922,43.49 47.922,76.307 0,47.052 -38.281,85.333 -85.333,85.333 h -85.333 v -21.333 h 32 c 5.896,0 10.667,-4.771 10.667,-10.667 0,-5.896 -4.771,-10.667 -10.667,-10.667 h -42.667 -64 -42.665 c -5.896,0 -10.667,4.771 -10.667,10.667 0,5.896 4.771,10.667 10.667,10.667 h 32 v 21.333 C 83.136,426.668 64,445.803 64,469.335 v 32 c 0,5.896 4.771,10.667 10.667,10.667 h 362.667 c 5.896,0 10.667,-4.771 10.667,-10.667 v -32 c 0,-17.52 -10.625,-32.573 -25.757,-39.137 z m -144.91,-195.53 c -11.76,0 -21.333,-9.573 -21.333,-21.333 0,-11.76 9.573,-21.333 21.333,-21.333 11.76,0 21.333,9.573 21.333,21.333 0,11.76 -9.573,21.333 -21.333,21.333 z"
   id="path2"
   inkscape:connector-curvature="0"
   style="fill:#ffffff;fill-opacity:1" />
	</g>
</g>
<g
   id="g8"
   transform="translate(227.79706,156.20367)">
</g>
<g
   id="g10"
   transform="translate(227.79706,156.20367)">
</g>
<g
   id="g12"
   transform="translate(227.79706,156.20367)">
</g>
<g
   id="g14"
   transform="translate(227.79706,156.20367)">
</g>
<g
   id="g16"
   transform="translate(227.79706,156.20367)">
</g>
<g
   id="g18"
   transform="translate(227.79706,156.20367)">
</g>
<g
   id="g20"
   transform="translate(227.79706,156.20367)">
</g>
<g
   id="g22"
   transform="translate(227.79706,156.20367)">
</g>
<g
   id="g24"
   transform="translate(227.79706,156.20367)">
</g>
<g
   id="g26"
   transform="translate(227.79706,156.20367)">
</g>
<g
   id="g28"
   transform="translate(227.79706,156.20367)">
</g>
<g
   id="g30"
   transform="translate(227.79706,156.20367)">
</g>
<g
   id="g32"
   transform="translate(227.79706,156.20367)">
</g>
<g
   id="g34"
   transform="translate(227.79706,156.20367)">
</g>
<g
   id="g36"
   transform="translate(227.79706,156.20367)">
</g>
</svg>